<?xml version="1.0" encoding="UTF-8"?>
<svg width="84px" height="24px" viewBox="0 0 84 24" version="1.1" xmlns="http://www.w3.org/2000/svg" xmlns:xlink="http://www.w3.org/1999/xlink">
    <!-- Generator: Sketch 51.3 (57544) - http://www.bohemiancoding.com/sketch -->
    <title>COTA-logo</title>
    <desc>Created with Sketch.</desc>
    <defs></defs>
    <g id="cota-buses" stroke="none" stroke-width="1" fill="none" fill-rule="evenodd">
        <g id="cota_standalone" transform="translate(-121.000000, -24.000000)" fill="#A52632">
            <g id="COTA-logo" transform="translate(121.000000, 24.000000)">
                <polyline id="Fill-1" points="8.63069067 0.0973636364 0 8.658 8.63069067 8.658 8.63069067 0.0973636364"></polyline>
                <path d="M20.4520065,24 C17.4220949,24 14.8572766,23.2302273 12.7578265,21.6889091 C10.6578265,20.1496364 9.60734534,17.8645909 9.60734534,14.8360909 C9.60734534,11.9567727 10.6180949,9.74168182 12.6387692,8.19504545 C14.6577938,6.64581818 17.2626187,5.87236364 20.4520065,5.87236364 C21.372982,5.87236364 22.2239804,5.93481818 23.0036268,6.06027273 C23.7832733,6.18531818 24.6782651,6.36668182 25.6877774,6.59945455 L25.502455,10.8166364 C25.1472079,10.6504091 24.8153322,10.5113182 24.5055908,10.4035909 C24.1944746,10.296 23.7614141,10.1772273 23.2028347,10.0521818 C22.6439804,9.927 22.0202357,9.86304545 21.3287136,9.86304545 C19.6634239,9.86304545 18.3209362,10.3210909 17.3029002,11.2322727 C16.282802,12.1445455 15.7738527,13.3633636 15.7738527,14.8851818 C15.7738527,16.4755909 16.2965499,17.7144545 17.3419444,18.6015 C18.3872013,19.4877273 19.7435745,19.9317273 21.4088642,19.9317273 C22.081964,19.9317273 22.7820098,19.8568636 23.5081768,19.7065909 C24.2172962,19.5902727 24.9174795,19.3965 25.6084517,19.1271818 L25.741257,23.2952727 C25.3690998,23.3798182 24.9838822,23.4695455 24.585054,23.5610455 C24.1863633,23.6533636 23.751653,23.7325909 23.2831227,23.7999545 C22.8130802,23.8636364 22.3614599,23.9162727 21.9267496,23.9487273 C21.4920393,23.9828182 21.0008249,24 20.4520065,24" id="Fill-2"></path>
                <path d="M36.7979116,9.71277273 C35.5215516,9.71277273 34.6130867,10.2234545 34.0733421,11.2446818 C33.5331849,12.2659091 33.2626252,13.4960455 33.2626252,14.9350909 C33.2626252,16.3753636 33.5331849,17.6055 34.0733421,18.6252273 C34.6130867,19.6465909 35.5215516,20.1583636 36.7979116,20.1583636 C38.1261015,20.1583636 39.0435025,19.6465909 39.5481899,18.6252273 C40.0534272,17.6055 40.306252,16.3753636 40.306252,14.9350909 C40.306252,13.5133636 40.0488903,12.2871818 39.5348543,11.2573636 C39.0215057,10.2286364 38.1091915,9.71277273 36.7979116,9.71277273 Z M36.7979116,24 C33.643581,24 31.2251784,23.208 29.541329,21.6264545 C27.8581669,20.0447727 27.0169296,17.8134545 27.0169296,14.9350909 C27.0169296,12.0567273 27.8581669,9.82677273 29.541329,8.24386364 C31.2251784,6.66204545 33.643581,5.87236364 36.7979116,5.87236364 C39.9512799,5.87236364 42.3749067,6.66204545 44.0665925,8.24386364 C45.7585532,9.82677273 46.6050147,12.0567273 46.6050147,14.9350909 C46.6050147,17.8134545 45.7585532,20.0447727 44.0665925,21.6264545 C42.3749067,23.208 39.9512799,24 36.7979116,24 Z" id="Fill-3"></path>
                <polyline id="Fill-4" points="64.0139116 10.4914091 58.6183895 10.4914091 58.6183895 23.6972727 52.5853748 23.6972727 52.5853748 10.4914091 47.1626318 10.4914091 47.1626318 6.17277273 64.0139116 6.17277273 64.0139116 10.4914091"></polyline>
                <path d="M75.1775254,16.1664545 L73.0516792,9.86304545 L70.7906907,16.1664545 L75.1775254,16.1664545 Z M83.9206743,23.6972727 L77.4900687,23.6972727 L76.1852504,19.9317273 L69.7283863,19.9317273 L68.4263175,23.6972727 L62.3662193,23.6972727 L69.1167398,6.17277273 L77.0372111,6.17277273 L83.9206743,23.6972727 Z" id="Fill-5"></path>
            </g>
        </g>
    </g>
</svg>