<svg id="Layer_1" data-name="Layer 1" xmlns="http://www.w3.org/2000/svg" viewBox="0 0 80.62 104.97"><defs><style>.cls-1{fill:#40b4a6;}.cls-2{fill:#fff;}.cls-3{stroke:#fff;stroke-miterlimit:10;}</style></defs><title>map-marker-easymile</title><path class="cls-1" d="M366.22,350c0,35.6-33.43,59.09-41,64.64h0C314.35,406.49,285.6,383.7,285.6,350a40.31,40.31,0,0,1,80.62,0Z" transform="translate(-285.6 -309.67)"/><circle class="cls-2" cx="40.41" cy="40.73" r="32.88"/><polygon class="cls-3" points="28.3 54.05 58.59 54.1 61.76 53.74 62.97 53.56 64.57 52.85 64.53 50.53 63.5 49.73 62.97 47.76 63.41 47.41 63.63 46.74 63.59 45.93 63.23 40.13 62.56 34.24 61.45 28.54 60.91 27.69 60.24 27.02 59.22 26.62 57.61 26.39 51.68 25.95 51.45 25.5 50.88 25.1 50.65 23.98 49.89 23.09 40.7 22.87 31.78 23.14 30.93 24.03 30.89 25.14 30.18 25.46 30.09 25.9 25.98 26.17 22.41 26.62 21.52 27.02 20.67 27.82 20.23 28.85 19.16 34.2 18.62 38.71 18.04 45.58 18 46.74 18.22 47.41 18.66 47.72 18.17 49.73 17.1 50.62 17.01 52.76 18.53 53.61 19.96 53.65 28.3 54.05"/><ellipse class="cls-2" cx="57.53" cy="52.74" rx="4.2" ry="4.18"/><ellipse id="Back_White" data-name="Back White" class="cls-2" cx="24.18" cy="52.85" rx="4.2" ry="4.18"/><ellipse id="Main_Black" data-name="Main Black" cx="24.18" cy="52.85" rx="3.61" ry="3.6"/><ellipse id="Small_White" data-name="Small White" class="cls-2" cx="24.18" cy="52.85" rx="2.68" ry="2.67"/><polygon class="cls-2" points="32.34 42.03 49.18 41.92 49.22 29.42 43.85 29.24 37.67 29.2 32.38 29.45 32.34 42.03"/><polygon class="cls-2" points="50.53 41.92 51.63 41.96 57.53 40.89 57.99 40.71 58.13 40.39 58.27 39.82 58.17 37.91 58.06 36.49 57.92 35.21 57.7 33.11 57.42 31.41 57.17 30.63 56.92 30.13 56.5 29.91 55.86 29.81 50.57 29.45 50.53 41.92"/><polygon class="cls-2" points="31.14 41.96 31.11 29.49 25.86 29.84 25.23 29.95 24.8 30.16 24.56 30.66 24.31 31.44 24.03 33.15 23.82 35.24 23.68 36.52 23.57 37.94 23.47 39.86 23.61 40.43 23.75 40.75 24.2 40.93 30.05 41.99 31.14 41.96"/><ellipse id="Main_Black-2" data-name="Main Black" cx="57.53" cy="52.72" rx="3.61" ry="3.6"/><ellipse id="Small_White-2" data-name="Small White" class="cls-2" cx="57.53" cy="52.72" rx="2.68" ry="2.67"/></svg>