<svg xmlns="http://www.w3.org/2000/svg" viewBox="0 0 50 50"><defs><style>.cls-1,.cls-2{fill:#fff;}.cls-1{stroke:#31913c;stroke-miterlimit:10;}.cls-3{fill:#020000;}.cls-4{fill:#31913c;}</style></defs><title>smart-circuitAsset 10</title><g id="Layer_2" data-name="Layer 2"><g id="Layer_1-2" data-name="Layer 1"><circle class="cls-1" cx="25" cy="25" r="24.5"/><rect class="cls-2" x="13.45" y="9.95" width="23.19" height="11.45"/><rect x="12.87" y="21.11" width="24.63" height="13.83"/><rect x="13.03" y="9.22" width="24" height="1"/><rect x="14.1" y="8.4" width="21.84" height="0.83"/><rect x="13.12" y="9.78" width="0.61" height="25.59"/><rect x="36.49" y="10.02" width="0.58" height="25.37"/><path d="M12.74,41.07h3.17V37.39l-3.1-1.87S12.66,41.07,12.74,41.07Z"/><path d="M37.59,41.07H34.42V37.39l3.1-1.87S37.66,41.07,37.59,41.07Z"/><rect class="cls-2" x="13.94" y="22.07" width="22.28" height="2.69" rx="1.34"/><rect class="cls-2" x="15.37" y="24.83" width="19.83" height="2.69" rx="1.34"/><polygon class="cls-2" points="13.95 23.75 15.38 26.51 35.19 26.51 36.21 23.75 13.95 23.75"/><rect x="14.96" y="7.68" width="20.07" height="0.89"/><rect x="6.57" y="27.44" width="12" height="0.68" transform="translate(-15.22 40.35) rotate(-90)"/><rect x="31.76" y="27.44" width="12" height="0.68" transform="translate(9.98 65.53) rotate(-90)"/><rect class="cls-2" x="20.08" y="30.52" width="9.98" height="1.15"/><circle class="cls-3" cx="16.43" cy="23.98" r="1.5"/><circle class="cls-4" cx="25.1" cy="23.64" r="1"/><rect x="13.15" y="34.6" width="23.92" height="0.82"/><rect x="14.38" y="35.06" width="21.28" height="0.82"/><rect x="15.32" y="35.57" width="19.51" height="0.83"/><circle class="cls-3" cx="33.86" cy="24.03" r="1.5"/></g></g></svg>